<mxfile host="app.diagrams.net" modified="2023-04-28T08:54:14.136Z" agent="Mozilla/5.0 (Windows NT 10.0; Win64; x64; rv:109.0) Gecko/20100101 Firefox/112.0" etag="U0SArtJ5DglF90XYAz75" version="21.2.3" type="device">
  <diagram name="Sayfa -1" id="hJsuxgz2gE2B-gIZRrc7">
    <mxGraphModel dx="1050" dy="566" grid="1" gridSize="10" guides="1" tooltips="1" connect="1" arrows="1" fold="1" page="1" pageScale="1" pageWidth="827" pageHeight="1169" math="0" shadow="0">
      <root>
        <mxCell id="0" />
        <mxCell id="1" parent="0" />
        <mxCell id="BEHMrw8BVTVu88WIIxJO-1" value="ExerciseList" style="shape=umlFrame;whiteSpace=wrap;html=1;pointerEvents=0;recursiveResize=0;container=1;collapsible=0;width=186;height=20;" vertex="1" parent="1">
          <mxGeometry x="14" y="10" width="696" height="760" as="geometry" />
        </mxCell>
        <mxCell id="BEHMrw8BVTVu88WIIxJO-2" value="&lt;div&gt;User&lt;/div&gt;&lt;div&gt;&lt;br&gt;&lt;/div&gt;" style="shape=umlActor;verticalLabelPosition=bottom;verticalAlign=top;html=1;outlineConnect=0;" vertex="1" parent="BEHMrw8BVTVu88WIIxJO-1">
          <mxGeometry x="40" y="100" width="30" height="60" as="geometry" />
        </mxCell>
        <mxCell id="BEHMrw8BVTVu88WIIxJO-4" value="" style="html=1;verticalAlign=bottom;labelBackgroundColor=none;endArrow=none;endFill=0;rounded=0;dashed=1;" edge="1" parent="BEHMrw8BVTVu88WIIxJO-1" source="BEHMrw8BVTVu88WIIxJO-8">
          <mxGeometry width="160" relative="1" as="geometry">
            <mxPoint x="54.5" y="649" as="sourcePoint" />
            <mxPoint x="54.5" y="190" as="targetPoint" />
            <Array as="points" />
          </mxGeometry>
        </mxCell>
        <mxCell id="BEHMrw8BVTVu88WIIxJO-5" value=":ExerciseList" style="shape=umlLifeline;perimeter=lifelinePerimeter;whiteSpace=wrap;html=1;container=1;dropTarget=0;collapsible=0;recursiveResize=0;outlineConnect=0;portConstraint=eastwest;newEdgeStyle={&quot;edgeStyle&quot;:&quot;elbowEdgeStyle&quot;,&quot;elbow&quot;:&quot;vertical&quot;,&quot;curved&quot;:0,&quot;rounded&quot;:0};" vertex="1" parent="BEHMrw8BVTVu88WIIxJO-1">
          <mxGeometry x="336" y="90" width="100" height="660" as="geometry" />
        </mxCell>
        <mxCell id="BEHMrw8BVTVu88WIIxJO-6" value="open_ExerciseList()" style="html=1;verticalAlign=bottom;labelBackgroundColor=none;endArrow=block;endFill=1;rounded=0;" edge="1" parent="BEHMrw8BVTVu88WIIxJO-1" target="BEHMrw8BVTVu88WIIxJO-5">
          <mxGeometry x="0.0025" width="160" relative="1" as="geometry">
            <mxPoint x="56" y="200" as="sourcePoint" />
            <mxPoint x="226" y="200" as="targetPoint" />
            <mxPoint as="offset" />
          </mxGeometry>
        </mxCell>
        <mxCell id="BEHMrw8BVTVu88WIIxJO-8" value="" style="html=1;points=[];perimeter=orthogonalPerimeter;fillColor=strokeColor;align=left;verticalAlign=top;spacingLeft=10;" vertex="1" parent="BEHMrw8BVTVu88WIIxJO-1">
          <mxGeometry x="52.5" y="190" width="5" height="550" as="geometry" />
        </mxCell>
        <mxCell id="BEHMrw8BVTVu88WIIxJO-18" value="" style="html=1;points=[];perimeter=orthogonalPerimeter;fillColor=strokeColor;align=left;verticalAlign=top;spacingLeft=10;" vertex="1" parent="BEHMrw8BVTVu88WIIxJO-1">
          <mxGeometry x="383.5" y="190" width="5" height="260" as="geometry" />
        </mxCell>
        <mxCell id="BEHMrw8BVTVu88WIIxJO-20" value="View_Exercises()" style="html=1;verticalAlign=bottom;labelBackgroundColor=none;endArrow=none;endFill=0;rounded=0;startArrow=block;startFill=1;" edge="1" parent="BEHMrw8BVTVu88WIIxJO-1">
          <mxGeometry x="0.0025" width="160" relative="1" as="geometry">
            <mxPoint x="58.5" y="340" as="sourcePoint" />
            <mxPoint x="388.5" y="340" as="targetPoint" />
            <mxPoint as="offset" />
          </mxGeometry>
        </mxCell>
        <mxCell id="BEHMrw8BVTVu88WIIxJO-21" value=":AnExercise" style="shape=umlLifeline;perimeter=lifelinePerimeter;whiteSpace=wrap;html=1;container=1;dropTarget=0;collapsible=0;recursiveResize=0;outlineConnect=0;portConstraint=eastwest;newEdgeStyle={&quot;edgeStyle&quot;:&quot;elbowEdgeStyle&quot;,&quot;elbow&quot;:&quot;vertical&quot;,&quot;curved&quot;:0,&quot;rounded&quot;:0};" vertex="1" parent="BEHMrw8BVTVu88WIIxJO-1">
          <mxGeometry x="516" y="90" width="100" height="660" as="geometry" />
        </mxCell>
        <mxCell id="BEHMrw8BVTVu88WIIxJO-22" value="Declare_Injury()" style="html=1;verticalAlign=bottom;labelBackgroundColor=none;endArrow=block;endFill=1;rounded=0;" edge="1" parent="BEHMrw8BVTVu88WIIxJO-1">
          <mxGeometry x="0.0025" width="160" relative="1" as="geometry">
            <mxPoint x="52.5" y="290" as="sourcePoint" />
            <mxPoint x="382.5" y="290" as="targetPoint" />
            <mxPoint as="offset" />
          </mxGeometry>
        </mxCell>
        <mxCell id="BEHMrw8BVTVu88WIIxJO-23" value="Open_An_Exercise()" style="html=1;verticalAlign=bottom;labelBackgroundColor=none;endArrow=block;endFill=1;rounded=0;entryX=-0.3;entryY=0.006;entryDx=0;entryDy=0;entryPerimeter=0;" edge="1" parent="BEHMrw8BVTVu88WIIxJO-1" target="BEHMrw8BVTVu88WIIxJO-24">
          <mxGeometry x="0.0025" width="160" relative="1" as="geometry">
            <mxPoint x="52.5" y="450" as="sourcePoint" />
            <mxPoint x="556" y="450" as="targetPoint" />
            <mxPoint as="offset" />
          </mxGeometry>
        </mxCell>
        <mxCell id="BEHMrw8BVTVu88WIIxJO-24" value="" style="html=1;points=[];perimeter=orthogonalPerimeter;fillColor=strokeColor;align=left;verticalAlign=top;spacingLeft=10;" vertex="1" parent="BEHMrw8BVTVu88WIIxJO-1">
          <mxGeometry x="563.5" y="450" width="5" height="230" as="geometry" />
        </mxCell>
        <mxCell id="BEHMrw8BVTVu88WIIxJO-26" value="Open_Alternative_Exercise()" style="html=1;verticalAlign=bottom;labelBackgroundColor=none;endArrow=block;endFill=1;rounded=0;" edge="1" parent="BEHMrw8BVTVu88WIIxJO-1">
          <mxGeometry x="0.0025" width="160" relative="1" as="geometry">
            <mxPoint x="57.5" y="580" as="sourcePoint" />
            <mxPoint x="567" y="580" as="targetPoint" />
            <mxPoint as="offset" />
          </mxGeometry>
        </mxCell>
        <mxCell id="BEHMrw8BVTVu88WIIxJO-28" value="" style="html=1;points=[];perimeter=orthogonalPerimeter;fillColor=strokeColor;align=left;verticalAlign=top;spacingLeft=10;" vertex="1" parent="BEHMrw8BVTVu88WIIxJO-1">
          <mxGeometry x="383.5" y="680" width="5" height="60" as="geometry" />
        </mxCell>
        <mxCell id="BEHMrw8BVTVu88WIIxJO-7" value="" style="html=1;verticalAlign=bottom;labelBackgroundColor=none;endArrow=none;endFill=0;rounded=0;dashed=1;exitX=0.079;exitY=1.008;exitDx=0;exitDy=0;exitPerimeter=0;" edge="1" parent="BEHMrw8BVTVu88WIIxJO-1" target="BEHMrw8BVTVu88WIIxJO-8" source="BEHMrw8BVTVu88WIIxJO-1">
          <mxGeometry width="160" relative="1" as="geometry">
            <mxPoint x="55.5" y="790" as="sourcePoint" />
            <mxPoint x="68.5" y="200" as="targetPoint" />
          </mxGeometry>
        </mxCell>
        <mxCell id="BEHMrw8BVTVu88WIIxJO-32" value="Turn_Back()" style="html=1;verticalAlign=bottom;labelBackgroundColor=none;endArrow=none;endFill=0;rounded=0;startArrow=block;startFill=1;" edge="1" parent="BEHMrw8BVTVu88WIIxJO-1">
          <mxGeometry x="0.0025" width="160" relative="1" as="geometry">
            <mxPoint x="386" y="680" as="sourcePoint" />
            <mxPoint x="568.5" y="680" as="targetPoint" />
            <mxPoint as="offset" />
          </mxGeometry>
        </mxCell>
      </root>
    </mxGraphModel>
  </diagram>
</mxfile>
